<?xml version="1.0" encoding="UTF-8" standalone="no"?>
<!-- Created with Inkscape (http://www.inkscape.org/) -->

<svg
   width="512"
   height="512"
   viewBox="0 0 512 512"
   version="1.1"
   id="svg1"
   inkscape:version="1.4.4 (dcaf3e7, 2026-05-05)"
   sodipodi:docname="logo.svg"
   inkscape:export-filename="pwa-192x192.svg"
   inkscape:export-xdpi="96"
   inkscape:export-ydpi="96"
   xmlns:inkscape="http://www.inkscape.org/namespaces/inkscape"
   xmlns:sodipodi="http://sodipodi.sourceforge.net/DTD/sodipodi-0.dtd"
   xmlns="http://www.w3.org/2000/svg"
   xmlns:svg="http://www.w3.org/2000/svg">
  <sodipodi:namedview
     id="namedview1"
     pagecolor="#505050"
     bordercolor="#eeeeee"
     borderopacity="1"
     inkscape:showpageshadow="0"
     inkscape:pageopacity="0"
     inkscape:pagecheckerboard="0"
     inkscape:deskcolor="#505050"
     inkscape:document-units="px"
     inkscape:zoom="0.78906249"
     inkscape:cx="49.425743"
     inkscape:cy="158.41584"
     inkscape:window-width="1920"
     inkscape:window-height="1010"
     inkscape:window-x="971"
     inkscape:window-y="-6"
     inkscape:window-maximized="1"
     inkscape:current-layer="layer1"
     showguides="true">
    <sodipodi:guide
       position="31.716109,109.19185"
       orientation="-0.93624346,0.35135194"
       id="guide1"
       inkscape:locked="false" />
  </sodipodi:namedview>
  <defs
     id="defs1" />
  <g
     inkscape:label="Layer 1"
     inkscape:groupmode="layer"
     id="layer1">
    <rect
       style="fill:#e88034;stroke-width:5;stroke-linecap:round;stroke-linejoin:round;paint-order:markers stroke fill;fill-opacity:1"
       id="rect1"
       width="512"
       height="512"
       x="0"
       y="0"
       rx="0"
       ry="0" />
    <g
       id="g4"
       transform="translate(0,14.386185)">
      <path
         id="path4"
         style="font-weight:500;font-size:326.967px;font-family:'IBM Plex Mono';-inkscape-font-specification:'IBM Plex Mono Medium';text-align:center;letter-spacing:-19.3066px;text-anchor:middle;fill:#0f2740;stroke-width:122.613;stroke-linecap:round;stroke-linejoin:round;paint-order:markers stroke fill"
         d="m 404.75132,129.46289 -95.47461,152.36719 v 31.38867 h 108.55274 v 44.46875 h 34.98437 v -44.46875 h 32.04297 V 284.44531 H 452.81382 V 129.46289 Z m 11.11524,33.67773 h 1.96289 v 121.30469 h -77.49219 z" />
      <path
         style="font-weight:500;font-size:326.967px;font-family:'IBM Plex Mono';-inkscape-font-specification:'IBM Plex Mono Medium';text-align:center;letter-spacing:-19.3066px;text-anchor:middle;fill:#0f2740;stroke-width:122.613;stroke-linecap:round;stroke-linejoin:round;paint-order:markers stroke fill"
         d="m 300.79029,357.68671 h -157.5981 v -34.98547 l 74.54848,-65.06644 q 17.65622,-15.69442 27.13826,-29.754 9.80901,-14.05958 9.80901,-29.75399 v -3.59664 q 0,-17.98319 -9.80901,-27.46523 -9.80901,-9.80901 -28.44613,-9.80901 -18.96408,0 -29.42703,10.13598 -10.13598,10.13597 -14.71351,25.83039 l -32.04277,-12.09778 q 3.26967,-10.78991 9.48204,-20.59892 6.21238,-10.13598 15.69442,-17.98319 9.80901,-7.8472 22.88769,-12.42474 13.40565,-4.57754 30.7349,-4.57754 17.65622,0 31.38883,5.23147 14.05958,4.90451 23.54163,13.73262 9.48204,8.8281 14.38654,21.25285 4.90451,12.09778 4.90451,26.8113 0,13.73261 -4.25057,25.50342 -3.92361,11.44385 -11.44385,22.23376 -7.19327,10.46294 -17.32925,20.27195 -10.13598,9.80901 -22.23375,19.61803 l -55.25743,46.42931 h 118.03509 z"
         id="path2" />
    </g>
    <path
       style="fill:#0f2740;stroke-width:5;stroke-linecap:round;stroke-linejoin:round;paint-order:markers stroke fill"
       d="M 0,0 H 182.8813 L 0,484.99185 Z"
       id="path1"
       sodipodi:nodetypes="cccc" />
    <path
       style="fill:#0f2740;stroke-width:5;stroke-linecap:round;stroke-linejoin:round;paint-order:markers stroke fill"
       d="M 0,0 H 182.8813 L 0,484.99185 Z"
       id="path3"
       sodipodi:nodetypes="cccc" />
  </g>
</svg>
